<?xml version="1.0" encoding="UTF-8"?>
<svg width="310px" height="63px" viewBox="0 0 310 63" version="1.1" xmlns="http://www.w3.org/2000/svg" xmlns:xlink="http://www.w3.org/1999/xlink">
    <!-- Generator: Sketch 43.1 (39012) - http://www.bohemiancoding.com/sketch -->
    <title>Sho Tai Ti</title>
    <desc>Created with Sketch.</desc>
    <defs></defs>
    <g id="Page-1" stroke="none" stroke-width="1" fill="none" fill-rule="evenodd">
        <path d="M15.64,14.528 C14.3599936,15.7013392 13.72,17.354656 13.72,19.488 C13.72,21.621344 14.2639946,23.5306582 15.352,25.216 C16.4400054,26.9013418 17.783992,28.3306608 19.384,29.504 C20.984008,30.6773392 22.7333238,31.9466598 24.632,33.312 C26.5306762,34.6773402 28.279992,35.9679939 29.88,37.184 C31.480008,38.4000061 32.8239946,39.903991 33.912,41.696 C35.0000054,43.488009 35.544,45.3866566 35.544,47.392 C35.544,51.3600198 33.9226829,54.7199862 30.68,57.472 C27.4373171,60.2240138 23.1813597,61.6 17.912,61.6 C12.6426403,61.6 8.47201536,60.4693446 5.4,58.208 C2.32798464,55.9466554 0.792,53.386681 0.792,50.528 C0.792,47.669319 1.6453248,45.440008 3.352,43.84 C5.0586752,42.239992 7.25598656,41.44 9.944,41.44 C10.7120038,41.44 11.4373299,41.5253325 12.12,41.696 C10.7973267,43.6586765 10.136,45.7813219 10.136,48.064 C10.136,50.3466781 10.839993,52.3093251 12.248,53.952 C13.656007,55.5946749 15.522655,56.416 17.848,56.416 C20.173345,56.416 22.1253254,55.8080061 23.704,54.592 C25.2826746,53.3759939 26.072,51.8186762 26.072,49.92 C26.072,48.0213238 25.538672,46.3466739 24.472,44.896 C23.405328,43.4453261 22.0826746,42.1973386 20.504,41.152 C18.9253254,40.1066614 17.1973427,38.9120067 15.32,37.568 C13.4426573,36.2239933 11.7146746,34.8693402 10.136,33.504 C8.55732544,32.1386598 7.234672,30.4000106 6.168,28.288 C5.101328,26.1759894 4.568,23.8613459 4.568,21.344 C4.568,17.2906464 6.03998528,14.0586787 8.984,11.648 C11.9280147,9.23732128 15.895975,8.032 20.888,8.032 C25.880025,8.032 29.6666538,9.1519888 32.248,11.392 C34.8293462,13.6320112 36.12,16.0213206 36.12,18.56 C36.12,21.0986794 35.3093414,23.2319914 33.688,24.96 C32.0666586,26.6880086 29.8693472,27.552 27.096,27.552 C26.1573286,27.552 25.2400045,27.4666675 24.344,27.296 C26.4346771,25.0773222 27.48,22.7413456 27.48,20.288 C27.48,17.8346544 26.7973402,15.9680064 25.432,14.688 C24.0666598,13.4079936 22.413343,12.768 20.472,12.768 C18.530657,12.768 16.9200064,13.3546608 15.64,14.528 Z M59.16,28.032 C62.1466816,24.7253168 64.9306538,23.072 67.512,23.072 C70.0933462,23.072 71.9279946,23.8506589 73.016,25.408 C74.1040054,26.9653411 74.648,29.07732 74.648,31.744 C74.648,34.41068 74.2320042,38.1546426 73.4,42.976 C72.5679958,47.7973574 72.152,51.3066557 72.152,53.504 C72.152,55.7013443 72.4293306,57.3013283 72.984,58.304 C73.5386694,59.3066717 74.4773267,60.170663 75.8,60.896 C75.2453306,60.9386669 74.4560051,60.96 73.432,60.96 C69.8479821,60.96 67.2986742,60.4053389 65.784,59.296 C64.2693258,58.1866611 63.512,56.2453472 63.512,53.472 C63.512,51.8933254 63.9386624,48.8106896 64.792,44.224 C65.6453376,39.6373104 66.072,36.2133446 66.072,33.952 C66.072,31.1359859 65.2186752,29.728 63.512,29.728 C62.4879949,29.728 61.3573395,30.3039942 60.12,31.456 C58.8826605,32.6080058 57.6986723,34.1759901 56.568,36.16 C55.4373277,38.1440099 54.4880038,40.6933178 53.72,43.808 C52.9519962,46.9226822 52.568,50.0266512 52.568,53.12 C52.568,56.2133488 52.6959987,58.5066592 52.952,60 C51.5866598,60.0853338 50.6906688,60.128 50.264,60.128 C47.8319878,60.128 46.082672,59.7120042 45.016,58.88 C43.949328,58.0479958 43.416,56.7146758 43.416,54.88 C43.416,53.0453242 43.778663,49.5466925 44.504,44.384 C46.8080115,28.5119206 47.96,16.4587078 47.96,8.224 C47.96,4.51198144 47.7040026,2.0160064 47.192,0.736 C50.392016,1.5893376 52.5786608,2.87999136 53.752,4.608 C54.9253392,6.33600864 55.512,8.77865088 55.512,11.936 C55.512,14.069344 55.0960042,18.5492992 54.264,25.376 C53.4319958,32.2027008 52.8666682,37.1519846 52.568,40.224 C53.976007,35.4026426 56.1733184,31.3386832 59.16,28.032 Z M102.104,27.936 C99.3306528,27.936 96.8560109,29.802648 94.68,33.536 C92.5039891,37.269352 91.416,40.9919814 91.416,44.704 C91.416,52.4693722 93.4213133,56.352 97.432,56.352 C100.290681,56.352 102.615991,54.485352 104.408,50.752 C106.200009,47.018648 107.096,42.8266899 107.096,38.176 C107.096,31.3492992 105.432017,27.936 102.104,27.936 Z M112.6,27.04 C114.392009,29.5573459 115.288,32.9279789 115.288,37.152 C115.288,41.8880237 114.32801,46.2399802 112.408,50.208 C110.274656,54.6880224 107.245353,57.7813248 103.32,59.488 C101.101322,60.4693382 98.6693466,60.96 96.024,60.96 C92.3119814,60.96 89.0800138,59.5200144 86.328,56.64 C83.5759862,53.7599856 82.2,49.6213603 82.2,44.224 C82.2,38.8266397 83.5226534,34.0693539 86.168,29.952 C88.8133466,25.8346461 92.3119782,23.242672 96.664,22.176 C97.1333357,22.176 97.5706646,22.3146653 97.976,22.592 C98.3813354,22.8693347 98.584,23.1573318 98.584,23.456 C94.2746451,26.4426816 91.6933376,30.60264 90.84,35.936 C91.7360045,33.5466547 92.8346602,31.4773421 94.136,29.728 C95.4373398,27.9786579 96.791993,26.6560045 98.2,25.76 C100.888013,24.0959917 103.511987,23.264 106.072,23.264 C108.632013,23.264 110.807991,24.5226541 112.6,27.04 Z M141.4,10.016 C146.008023,10.7840038 151.533301,11.168 157.976,11.168 C164.418699,11.168 171.159965,10.4000077 178.2,8.864 C177.474663,14.2826938 174.722691,17.2479974 169.944,17.76 C168.450659,17.9733344 166.146682,18.1866656 163.032,18.4 C162.946666,19.6373395 162.242673,25.0452854 160.92,34.624 C159.597327,44.2027146 158.936,50.8053152 158.936,54.432 C158.936,58.0586848 159.234664,60.575993 159.832,61.984 C156.205315,61.0453286 153.730673,59.7973411 152.408,58.24 C151.085327,56.6826589 150.424,54.7520115 150.424,52.448 C150.424,50.1439885 150.967995,45.1413718 152.056,37.44 C153.144005,29.7386282 153.794666,23.5413568 154.008,18.848 C150.551983,19.0186675 147.160017,19.104 143.832,19.104 C141.869324,19.104 140.888,17.3546842 140.888,13.856 C140.973334,12.1919917 141.143999,10.9120045 141.4,10.016 Z M186.264,47.904 C186.264,49.9093434 186.63733,51.541327 187.384,52.8 C188.13067,54.058673 189.18666,54.688 190.552,54.688 C192.557343,54.688 194.466658,53.5146784 196.28,51.168 C198.093342,48.8213216 199.543995,45.8133517 200.632,42.144 C201.720005,38.4746483 202.264,34.9866832 202.264,31.68 C202.264,28.3733168 202.136001,25.6960102 201.88,23.648 C203.160006,23.5626662 204.055997,23.52 204.568,23.52 C206.744011,23.52 208.386661,23.9253293 209.496,24.736 C210.605339,25.5466707 211.16,26.9973229 211.16,29.088 C211.16,29.8986707 210.648005,33.1946378 209.624,38.976 C208.599995,44.7573622 208.088,49.3866493 208.088,52.864 C208.088,56.3413507 208.749327,59.4239866 210.072,62.112 C206.871984,61.5573306 204.525341,60.3733424 203.032,58.56 C201.538659,56.7466576 200.792,54.1333504 200.792,50.72 C200.792,50.1226637 200.877332,48.9706752 201.048,47.264 C199.895994,51.3173536 197.848015,54.581321 194.904,57.056 C191.959985,59.530679 189.069348,60.768 186.232,60.768 C183.394652,60.768 181.112009,59.7120106 179.384,57.6 C177.655991,55.4879894 176.792,52.4906861 176.792,48.608 C176.792,44.7253139 177.485326,40.9600182 178.872,37.312 C180.258674,33.6639818 182.338653,30.5706794 185.112,28.032 C187.885347,25.4933206 190.97865,24.224 194.392,24.224 C196.354676,24.224 198.35999,24.6933286 200.408,25.632 C196.098645,27.1680077 192.664013,30.1866442 190.104,34.688 C187.543987,39.1893558 186.264,43.5946451 186.264,47.904 Z M220.568,49.504 C220.568,47.711991 220.90933,44.4693568 221.592,39.776 C222.27467,35.0826432 222.616,31.4346797 222.616,28.832 C222.616,26.2293203 222.488001,24.224007 222.232,22.816 C223.170671,22.7306662 224.045329,22.688 224.856,22.688 C227.330679,22.688 229.047995,23.1039958 230.008,23.936 C230.968005,24.7680042 231.448,26.1866566 231.448,28.192 C231.448,28.8320032 230.925339,32.1919696 229.88,38.272 C228.834661,44.3520304 228.301333,49.3653136 228.28,53.312 C228.258667,57.2586864 228.503997,59.8079942 229.016,60.96 C225.687983,60.1066624 223.448006,58.8160086 222.296,57.088 C221.143994,55.3599914 220.568,52.8320166 220.568,49.504 Z M229.272,17.312 C224.877311,17.312 222.68,15.7760154 222.68,12.704 C222.68,11.5946611 222.999997,10.0800096 223.64,8.16 C224.834673,7.98933248 225.879996,7.904 226.776,7.904 C231.170689,7.904 233.368,9.43998464 233.368,12.512 C233.368,13.6213389 233.048003,15.1359904 232.408,17.056 C231.213327,17.2266675 230.168004,17.312 229.272,17.312 Z M258.456,10.016 C263.064023,10.7840038 268.589301,11.168 275.032,11.168 C281.474699,11.168 288.215965,10.4000077 295.256,8.864 C294.530663,14.2826938 291.778691,17.2479974 287,17.76 C285.506659,17.9733344 283.202682,18.1866656 280.088,18.4 C280.002666,19.6373395 279.298673,25.0452854 277.976,34.624 C276.653327,44.2027146 275.992,50.8053152 275.992,54.432 C275.992,58.0586848 276.290664,60.575993 276.888,61.984 C273.261315,61.0453286 270.786673,59.7973411 269.464,58.24 C268.141327,56.6826589 267.48,54.7520115 267.48,52.448 C267.48,50.1439885 268.023995,45.1413718 269.112,37.44 C270.200005,29.7386282 270.850666,23.5413568 271.064,18.848 C267.607983,19.0186675 264.216017,19.104 260.888,19.104 C258.925324,19.104 257.944,17.3546842 257.944,13.856 C258.029334,12.1919917 258.199999,10.9120045 258.456,10.016 Z M296.984,49.504 C296.984,47.711991 297.32533,44.4693568 298.008,39.776 C298.69067,35.0826432 299.032,31.4346797 299.032,28.832 C299.032,26.2293203 298.904001,24.224007 298.648,22.816 C299.586671,22.7306662 300.461329,22.688 301.272,22.688 C303.746679,22.688 305.463995,23.1039958 306.424,23.936 C307.384005,24.7680042 307.864,26.1866566 307.864,28.192 C307.864,28.8320032 307.341339,32.1919696 306.296,38.272 C305.250661,44.3520304 304.717333,49.3653136 304.696,53.312 C304.674667,57.2586864 304.919997,59.8079942 305.432,60.96 C302.103983,60.1066624 299.864006,58.8160086 298.712,57.088 C297.559994,55.3599914 296.984,52.8320166 296.984,49.504 Z M305.688,17.312 C301.293311,17.312 299.096,15.7760154 299.096,12.704 C299.096,11.5946611 299.415997,10.0800096 300.056,8.16 C301.250673,7.98933248 302.295996,7.904 303.192,7.904 C307.586689,7.904 309.784,9.43998464 309.784,12.512 C309.784,13.6213389 309.464003,15.1359904 308.824,17.056 C307.629327,17.2266675 306.584004,17.312 305.688,17.312 Z" id="Sho-Tai-Ti" fill="#ffffff"></path>
    </g>
</svg>